<svg width="1080" height="1080" viewBox="0 0 1080 1080" fill="none" xmlns="http://www.w3.org/2000/svg">
<g clip-path="url(#clip0_313_2)">
<path d="M557.935 149.317L637.578 310.693C655.058 346.11 688.846 370.658 727.931 376.338L906.019 402.215C922.424 404.599 928.974 424.759 917.104 436.329L788.237 561.943C759.955 589.511 747.049 629.231 753.726 668.158L784.147 845.527C786.949 861.865 769.801 874.325 755.128 866.611L595.841 782.869C560.882 764.49 519.118 764.49 484.159 782.869L324.872 866.611C310.199 874.325 293.051 861.865 295.853 845.527L326.274 668.158C332.951 629.231 320.045 589.511 291.763 561.943L162.896 436.329C151.026 424.759 157.576 404.599 173.981 402.215L352.069 376.338C391.154 370.658 424.942 346.11 442.422 310.693L522.065 149.317C529.402 134.452 550.598 134.452 557.935 149.317Z" stroke="black" stroke-width="100"/>
</g>
<defs>
<clipPath id="clip0_313_2">
<rect width="1080" height="1080" fill="white"/>
</clipPath>
</defs>
</svg>
