<svg width="1080" height="1080" viewBox="0 0 1080 1080" fill="none" xmlns="http://www.w3.org/2000/svg">
<g clip-path="url(#clip0_310_8)">
<path d="M477.229 127.189C502.905 75.1617 577.095 75.1618 602.772 127.189L682.415 288.565C692.611 309.225 712.321 323.544 735.121 326.857L913.209 352.735C970.625 361.078 993.55 431.636 952.004 472.134L823.138 597.747C806.64 613.829 799.112 636.999 803.006 659.706L833.427 837.075C843.235 894.258 783.215 937.866 731.861 910.867L572.574 827.125C552.181 816.404 527.819 816.404 507.426 827.125L348.139 910.867C296.785 937.866 236.765 894.258 246.573 837.075L276.994 659.706C280.888 636.999 273.36 613.829 256.862 597.747L127.996 472.134C86.4497 431.636 109.375 361.078 166.791 352.735L344.879 326.857C367.679 323.544 387.389 309.225 397.585 288.564L477.229 127.189Z" fill="#FFD52C"/>
</g>
<defs>
<clipPath id="clip0_310_8">
<rect width="1080" height="1080" fill="white"/>
</clipPath>
</defs>
</svg>
